<svg xmlns="http://www.w3.org/2000/svg" viewBox="0 0 50 50" width="50" height="50" preserveAspectRatio="xMidYMid meet" style="width: 100%; height: 100%; transform: translate3d(0px, 0px, 0px);"><defs><clipPath id="__lottie_element_19"><rect width="50" height="50" x="0" y="0"></rect></clipPath></defs><g clip-path="url(#__lottie_element_19)"><g style="display: block;" transform="matrix(1,0,0,1,25,25)" opacity="1"><g opacity="1" transform="matrix(1,0,0,1,0.75,0.5)"><path fill="rgb(255,255,255)" fill-opacity="1" d=" M32.75,-32 C32.75,-32 32.75,32 32.75,32 C32.75,32 -32.75,32 -32.75,32 C-32.75,32 -32.75,-32 -32.75,-32 C-32.75,-32 32.75,-32 32.75,-32z"></path><path stroke-linecap="butt" stroke-linejoin="miter" fill-opacity="0" stroke-miterlimit="4" stroke="rgb(255,255,255)" stroke-opacity="1" stroke-width="0" d=" M32.75,-32 C32.75,-32 32.75,32 32.75,32 C32.75,32 -32.75,32 -32.75,32 C-32.75,32 -32.75,-32 -32.75,-32 C-32.75,-32 32.75,-32 32.75,-32z"></path></g></g><g style="display: block;" transform="matrix(0.9961947202682495,-0.08715574443340302,0.08715574443340302,0.9961947202682495,-2.083761215209961,2.274026870727539)" opacity="1"><g opacity="1" transform="matrix(1,0,0,1,25,25)"><path stroke-linecap="butt" stroke-linejoin="miter" fill-opacity="0" stroke-miterlimit="10" stroke="rgb(0,0,0)" stroke-opacity="1" stroke-width="2" d=" M18.305999755859375,-12.206000328063965 C14.395999908447266,-18.058000564575195 7.75600004196167,-21.929000854492188 0.2070000022649765,-21.999000549316406"></path></g></g></g></svg>